# xmcd
#
# Track frame offsets: 
#        150
#        30667
#        49871
#        75945
#        108658
#        134129
#        162461
#        201023
#        217004
#
# Disc length: 3429 seconds
#
# Revision: 0
# Processed by: cddbd v1.5PL3 Copyright (c) Steve Scherf et al.
# Submitted via: ExactAudioCopy v0.95a3
#
DISCID=800d6309
DTITLE=陈雷激 - 陈雷激与名琴琅石泉
DYEAR=1900
DGENRE=Chinese Qin
TTITLE0=潇湘水云
TTITLE1=广陵散
TTITLE2=捣衣
TTITLE3=嗳乃
TTITLE4=长门怨
TTITLE5=流水
TTITLE6=平沙落雁
TTITLE7=酒狂
TTITLE8=渔樵问答
EXTD=陈雷激古琴独奏\n甲申三月正己堂\n单衣试酒原创
EXTT0=
EXTT1=
EXTT2=
EXTT3=
EXTT4=
EXTT5=
EXTT6=
EXTT7=
EXTT8=
PLAYORDER=
